<svg width="42" height="41" viewBox="0 0 42 41" fill="none" xmlns="http://www.w3.org/2000/svg">
<g id="Group 93">
<rect id="Rectangle 5" x="0.746582" width="40.7466" height="40.7466" rx="12.224" fill="white"/>
<g id="Group 93_2">
<path id="Vector" fill-rule="evenodd" clip-rule="evenodd" d="M26.1154 7.65436L26.1813 8.28222C26.3467 9.84717 25.8076 11.5923 24.7414 12.9515C24.7253 12.9703 24.7065 12.9838 24.6917 13.0026C24.8691 12.9959 25.0466 12.9824 25.2308 12.9999C26.0348 13.0335 28.1483 13.3401 29.5304 15.4011L29.9055 15.9617L29.3435 16.3355C28.8595 16.642 27.3739 17.7458 27.394 19.8163C27.4169 22.438 29.5304 23.3993 29.771 23.5001L30.3478 23.7421L30.1542 24.339C29.9942 24.8553 29.533 26.1769 28.6323 27.5214C27.7732 28.8013 26.7057 30.3958 24.9001 30.4294C24.0477 30.451 23.5032 30.1942 23.0044 29.975C22.5298 29.7653 22.1224 29.5851 21.4475 29.5851C20.7336 29.5851 20.302 29.772 19.8019 29.9898C19.3327 30.1942 18.8003 30.4254 18.0622 30.4563C18.0285 30.4577 17.9949 30.4577 17.964 30.4577C16.2149 30.4577 14.9995 28.6655 14.1901 27.473L14.1285 27.3811C12.1046 24.3299 10.9729 19.3621 12.8403 16.0532C13.8688 14.2287 15.7403 13.0765 17.7247 13.047C18.4977 13.0362 19.209 13.2782 19.8221 13.5202C19.9269 12.0964 20.6045 10.7681 21.3077 9.91035C22.3295 8.65732 24.0463 7.7404 25.4849 7.68125L26.1154 7.65436ZM25.1326 14.3403C24.2574 14.2476 23.4185 14.5931 22.6723 14.8943C22.109 15.1215 21.6236 15.3164 21.1732 15.3164C20.7887 15.3164 20.3854 15.186 19.9659 15.022L19.9014 15.0166L19.8987 14.9964C19.8099 14.9601 19.7212 14.9252 19.6298 14.8889C19.0409 14.6496 18.3942 14.3363 17.7476 14.3914C16.2377 14.4143 14.8059 15.3043 14.0113 16.7146C12.2904 19.7625 13.7303 24.3996 15.3033 26.7174C16.1396 27.9503 17.0269 29.1683 18.0084 29.1132C18.4951 29.093 18.8339 28.9452 19.2654 28.7583C19.8221 28.5149 20.454 28.2407 21.4475 28.2407C22.4061 28.2407 23.0124 28.5082 23.5475 28.7448C23.9899 28.9411 24.3569 29.1065 24.8745 29.085C25.9003 29.0662 26.6169 28.1143 27.515 26.7725C28.1039 25.8946 28.4803 25.0301 28.6941 24.4533C27.7839 23.9075 26.0738 22.524 26.0496 19.8284C26.0294 17.6894 27.2045 16.3288 28.0165 15.6458C27.0028 14.546 25.696 14.3645 25.1326 14.3403ZM24.8584 9.1346C23.9495 9.37796 22.9735 9.99506 22.3496 10.7601L22.3483 10.7614C21.7957 11.4363 21.2082 12.5522 21.1477 13.7004C22.1533 13.5498 23.1106 12.848 23.6847 12.1206C24.3784 11.2373 24.7938 10.1631 24.8584 9.1346Z" fill="black"/>
</g>
</g>
</svg>
