<svg width="25" height="25" viewBox="0 0 25 25" fill="none" xmlns="http://www.w3.org/2000/svg">
<g id="devicon:google" clip-path="url(#clip0_390_1204)">
<path id="Vector" d="M8.6661 0.954017C6.22337 1.80142 4.11677 3.40982 2.65571 5.54297C1.19466 7.67612 0.456161 10.2216 0.548702 12.8055C0.641243 15.3894 1.55994 17.8755 3.16985 19.8986C4.77977 21.9218 6.99604 23.3754 9.49313 24.0459C11.5176 24.5682 13.6386 24.5912 15.6739 24.1127C17.5176 23.6986 19.2222 22.8127 20.6208 21.5419C22.0763 20.1788 23.1329 18.4448 23.6768 16.5262C24.2677 14.4398 24.3729 12.2458 23.9843 10.1124H12.616V14.8282H19.1997C19.0681 15.5804 18.7862 16.2982 18.3707 16.9388C17.9552 17.5794 17.4148 18.1297 16.7817 18.5565C15.9778 19.0885 15.0715 19.4464 14.121 19.607C13.1679 19.7843 12.1901 19.7843 11.237 19.607C10.2708 19.4075 9.35683 19.0087 8.55341 18.4362C7.26254 17.5224 6.29327 16.2243 5.78392 14.727C5.2661 13.2016 5.2661 11.548 5.78392 10.0227C6.14648 8.95349 6.74585 7.98 7.53729 7.17487C8.443 6.23658 9.58964 5.56588 10.8514 5.23637C12.1132 4.90686 13.4414 4.93126 14.6902 5.30689C15.6658 5.60624 16.558 6.12949 17.2955 6.83489C18.0378 6.09636 18.7789 5.35592 19.5187 4.61357C19.9007 4.21438 20.3171 3.83429 20.6933 3.42555C19.5675 2.37795 18.246 1.56274 16.8046 1.0266C14.1797 0.0734897 11.3076 0.0478759 8.6661 0.954017Z" fill="white"/>
<path id="Vector_2" d="M8.66614 0.953602C11.3074 0.0468454 14.1795 0.071785 16.8046 1.02427C18.2463 1.56406 19.5672 2.3832 20.6915 3.43469C20.3095 3.84342 19.9065 4.22542 19.5168 4.6227C18.7757 5.36251 18.0353 6.09976 17.2955 6.83448C16.558 6.12907 15.6659 5.60582 14.6903 5.30648C13.4418 4.92953 12.1137 4.90372 10.8516 5.23188C9.58947 5.56005 8.44212 6.22951 7.53543 7.16682C6.74399 7.97195 6.14462 8.94543 5.78205 10.0146L1.82263 6.94908C3.23986 4.13864 5.69371 1.98887 8.66614 0.953602Z" fill="#E33629"/>
<path id="Vector_3" d="M0.772173 9.98568C0.984831 8.93093 1.33815 7.90951 1.82267 6.94879L5.78209 10.022C5.26427 11.5473 5.26427 13.2009 5.78209 14.7263C4.46292 15.745 3.14311 16.7687 1.82267 17.7976C0.610111 15.3839 0.240302 12.6339 0.772173 9.98568Z" fill="#F8BD00"/>
<path id="Vector_4" d="M12.6158 10.1102H23.9841C24.3727 12.2435 24.2675 14.4376 23.6766 16.5239C23.1327 18.4425 22.0761 20.1765 20.6206 21.5396C19.3428 20.5426 18.0593 19.5532 16.7815 18.5562C17.415 18.1289 17.9557 17.578 18.3712 16.9367C18.7867 16.2954 19.0684 15.5768 19.1995 14.824H12.6158C12.6139 13.254 12.6158 11.6821 12.6158 10.1102Z" fill="#587DBD"/>
<path id="Vector_5" d="M1.82068 17.7971C3.14112 16.7784 4.46093 15.7547 5.7801 14.7258C6.29046 16.2236 7.26112 17.5219 8.55341 18.435C9.35933 19.0049 10.2753 19.4004 11.2427 19.5963C12.1959 19.7736 13.1736 19.7736 14.1268 19.5963C15.0772 19.4357 15.9836 19.0778 16.7874 18.5458C18.0652 19.5428 19.3487 20.5322 20.6265 21.5292C19.2282 22.8008 17.5235 23.6873 15.6796 24.102C13.6443 24.5805 11.5233 24.5575 9.49886 24.0351C7.89771 23.6076 6.40214 22.854 5.10587 21.8215C3.73397 20.732 2.61339 19.3593 1.82068 17.7971Z" fill="#319F43"/>
</g>
<defs>
<clipPath id="clip0_390_1204">
<rect width="24.4479" height="24.4479" fill="white" transform="translate(0.149414 0.149414)"/>
</clipPath>
</defs>
</svg>
