<svg width="61" height="61" viewBox="0 0 61 61" fill="none" xmlns="http://www.w3.org/2000/svg">
<g id="map-arrow-up_svgrepo.com">
<g id="Group 1">
<path id="Vector" d="M23.1685 26.5337C22.71 26.3045 22.1528 26.504 21.944 26.9722L14.397 43.8956C13.1963 46.5881 15.8626 49.3811 18.3606 48.0473L28.9875 42.3735C29.8141 41.9322 30.7868 41.9322 31.6134 42.3735L42.2403 48.0473C44.7384 49.3811 47.4046 46.5881 46.204 43.8956L43.3748 37.5516C43.0354 36.7905 42.4422 36.1706 41.6968 35.798L23.1685 26.5337Z" fill="#ED3921"/>
<path id="Vector_2" opacity="0.5" d="M24.1981 24.0301C23.7674 23.8147 23.5825 23.2984 23.7787 22.8585L27.6499 14.1777C28.7125 11.7949 31.8884 11.7949 32.9512 14.1777L40.0936 30.194C40.4377 30.9656 39.6248 31.7434 38.869 31.3656L24.1981 24.0301Z" fill="#ED3921"/>
</g>
</g>
</svg>
