<svg width="54" height="61" viewBox="0 0 54 61" fill="none" xmlns="http://www.w3.org/2000/svg">
<g id="Group 1">
<path id="Vector" d="M15.0109 24.1748C14.2586 23.7987 13.3446 24.126 13.002 24.8942L0.620916 52.6577C-1.34894 57.0749 3.02522 61.6568 7.12333 59.4686L24.5572 50.1607C25.9132 49.4366 27.509 49.4366 28.8651 50.1607L46.2989 59.4686C50.3972 61.6568 54.7712 57.0749 52.8015 52.6577L48.1602 42.2501C47.6033 41.0015 46.6302 39.9845 45.4074 39.3732L15.0109 24.1748Z" fill="#ED3921"/>
<path id="Vector_2" opacity="0.5" d="M16.7003 20.0687C15.9936 19.7153 15.6903 18.8683 16.0121 18.1467L22.363 3.90545C24.1062 -0.00363863 29.3166 -0.00363863 31.06 3.90545L42.7774 30.1807C43.342 31.4467 42.0084 32.7227 40.7684 32.1029L16.7003 20.0687Z" fill="#ED3921"/>
</g>
</svg>
