<svg width="87" height="102" viewBox="0 0 87 102" fill="none" xmlns="http://www.w3.org/2000/svg">
<g id="Pin" filter="url(#filter0_d_350_3445)">
<path fill-rule="evenodd" clip-rule="evenodd" d="M43.7607 4.81348C64.7021 4.81348 81.6785 21.7898 81.6785 42.7312C81.6785 58.7879 71.6981 72.5135 57.6025 78.0431L45.92 94.0116C45.6765 94.3459 45.3531 94.6187 44.9772 94.8071C44.6013 94.9954 44.1839 95.0938 43.7603 95.0938C43.3367 95.0938 42.9194 94.9954 42.5435 94.8071C42.1676 94.6187 41.8442 94.3459 41.6006 94.0116L29.9178 78.0426C15.8228 72.5128 5.84302 58.7874 5.84302 42.7312C5.84302 21.7898 22.8194 4.81348 43.7607 4.81348Z" fill="url(#paint0_linear_350_3445)"/>
</g>
<defs>
<filter id="filter0_d_350_3445" x="0.843018" y="0.813477" width="85.8354" height="100.28" filterUnits="userSpaceOnUse" color-interpolation-filters="sRGB">
<feFlood flood-opacity="0" result="BackgroundImageFix"/>
<feColorMatrix in="SourceAlpha" type="matrix" values="0 0 0 0 0 0 0 0 0 0 0 0 0 0 0 0 0 0 127 0" result="hardAlpha"/>
<feOffset dy="1"/>
<feGaussianBlur stdDeviation="2.5"/>
<feComposite in2="hardAlpha" operator="out"/>
<feColorMatrix type="matrix" values="0 0 0 0 0 0 0 0 0 0 0 0 0 0 0 0 0 0 0.1 0"/>
<feBlend mode="normal" in2="BackgroundImageFix" result="effect1_dropShadow_350_3445"/>
<feBlend mode="normal" in="SourceGraphic" in2="effect1_dropShadow_350_3445" result="shape"/>
</filter>
<linearGradient id="paint0_linear_350_3445" x1="43.7607" y1="4.81348" x2="43.7607" y2="95.0938" gradientUnits="userSpaceOnUse">
<stop stop-color="#3F3F3F"/>
<stop offset="1" stop-color="#D53C3C"/>
</linearGradient>
</defs>
</svg>
