<svg width="18" height="18" viewBox="0 0 18 18" fill="none" xmlns="http://www.w3.org/2000/svg">
<g id="man-walking_svgrepo.com" clip-path="url(#clip0_490_1472)">
<path id="Vector" d="M9.09822 17.5033L9.12325 17.511C9.11459 17.4783 9.10303 17.4195 9.10303 17.3266C9.10303 17.1807 9.17814 16.9082 9.19884 16.8692C9.21955 16.8302 9.24218 16.8023 9.29225 16.8163C9.33029 16.8269 9.62206 16.9732 9.80839 16.9804C10.1546 16.9934 10.3216 16.6829 10.3216 16.6829C10.3216 16.6829 10.5137 16.7927 10.6664 16.8817C10.8195 16.9708 10.9971 17.1042 11.1281 17.1836C11.2398 17.2515 11.3674 17.2838 11.4993 17.3006C11.6312 17.3175 11.7386 17.3117 11.7704 17.3146C11.8022 17.3175 12.0694 17.2852 12.079 17.5495L12.0776 17.6107L12.1036 17.5982C12.1036 17.5982 12.1267 17.68 12.1286 17.6954C12.1305 17.7113 12.1402 17.7205 12.1065 17.7417C12.0728 17.7628 11.9245 17.8264 11.7357 17.8736C11.547 17.9208 11.2408 17.9906 11.0044 17.9906C10.768 17.9906 10.5667 17.9434 10.4502 17.9155C10.3332 17.8875 10.0828 17.8341 10.0588 17.8452C10.0347 17.8562 10.0029 17.9371 9.97546 17.9622C9.94754 17.9872 9.20029 17.9232 9.14685 17.9121C9.1281 17.9088 9.111 17.8993 9.09826 17.8852C9.08552 17.8711 9.07788 17.8531 9.07655 17.8341V17.5216C9.07559 17.5086 9.08666 17.5 9.09822 17.5033ZM3.82754 15.6968L4.0702 15.4903C4.07232 15.4885 4.07483 15.4871 4.07754 15.4864C4.08025 15.4857 4.08308 15.4856 4.08582 15.4862C4.08857 15.4867 4.09115 15.4879 4.09337 15.4896C4.09558 15.4914 4.09737 15.4935 4.09861 15.4961L4.1092 15.5206C4.14628 15.4695 4.18981 15.4234 4.23872 15.3834C4.35186 15.2871 4.61282 15.1648 4.65663 15.1557C4.70045 15.146 4.73704 15.1451 4.75919 15.1927C4.77604 15.2293 4.855 15.5519 4.97296 15.7012C5.19155 15.978 5.54302 15.9024 5.54302 15.9024L5.61669 16.3011C5.64895 16.4783 5.66291 16.7046 5.68795 16.8586C5.71311 16.9899 5.76596 17.1143 5.84298 17.2236C5.91713 17.3372 5.99224 17.4162 6.0115 17.4431C6.03027 17.4696 6.23153 17.6555 6.03316 17.8379L5.98453 17.8769L6.01102 17.889C6.01102 17.889 5.96287 17.9607 5.95228 17.9728C5.94168 17.9848 5.94024 17.9983 5.9022 17.9862C5.86417 17.9742 5.71635 17.901 5.55506 17.7859C5.39329 17.6704 5.13714 17.4792 4.98115 17.2958C4.82467 17.1124 4.72885 16.9251 4.673 16.8163C4.61715 16.7074 4.49341 16.4778 4.46886 16.4662C4.4443 16.4547 4.36101 16.4836 4.32297 16.4787C4.28542 16.4739 3.84102 15.8519 3.81406 15.8032C3.7871 15.7546 3.81165 15.7103 3.82754 15.6968Z" fill="white"/>
<path id="Vector_2" d="M8.47754 6.55906C8.03121 7.02127 7.00327 7.95051 6.98064 8.06173C6.85979 8.65057 6.68502 9.31645 6.73027 9.72474C6.76301 10.0208 6.54924 10.3497 6.46498 10.4869C6.36002 10.6574 6.08895 10.9193 5.91562 10.901C5.80777 10.8899 5.64263 10.6939 5.73074 10.5948C5.90262 10.4022 5.87422 10.109 5.98207 9.84414C6.19825 9.31212 6.00373 8.30632 6.30032 7.64719C6.42358 7.37419 6.65324 6.83205 7.66 5.90137C7.90603 6.12381 8.47754 6.55906 8.47754 6.55906Z" fill="white"/>
<path id="Vector_3" d="M8.61983 1.33036C9.38682 1.02848 10.5828 1.41799 10.7215 2.31401C10.8596 3.20377 10.6064 4.59956 9.82448 4.5153C9.00501 4.42671 8.16436 4.24857 7.83214 3.40455C7.49993 2.56053 7.85285 1.63225 8.61983 1.33036Z" fill="white"/>
<path id="Vector_4" d="M8.04953 3.62142C6.93348 2.31037 9.62202 2.43796 9.62202 2.43796C10.1309 2.45625 9.78042 3.30413 10.0202 3.7673C10.1844 4.08748 9.49299 4.25744 9.49299 4.25744C9.49299 4.25744 9.1757 4.25263 9.15884 4.6378V4.64117C9.15499 4.7394 9.1651 4.85543 9.21084 5.01143C9.43858 5.78226 8.40341 6.25459 8.17616 5.48231C8.08612 5.17657 8.12127 4.90791 8.16653 4.65995L8.17086 4.6378C8.24019 4.269 8.3259 3.94593 8.04953 3.62142Z" fill="white"/>
<path id="Vector_5" d="M7.74313 1.63988C8.25397 1.04189 8.98533 0.724601 10.1596 1.25904C10.6382 1.47666 10.8525 1.39625 10.9204 1.49207C11.2473 1.95091 10.8019 2.45983 10.6276 2.35824C10.0749 2.03613 9.57658 2.13194 9.44947 2.36498C9.32236 2.59801 9.43936 3.01689 9.3368 3.0193C9.05803 3.02652 9.10329 2.75353 8.99303 2.59657C8.81248 2.33946 8.53756 2.48486 8.47738 2.77086C8.42971 2.99763 8.47738 3.38281 8.84811 3.4507C8.5963 4.00487 8.09701 4.17387 8.09701 4.17387C8.09701 4.17387 7.93476 4.23742 7.65791 3.69192C7.38058 3.14593 7.23566 2.23354 7.74313 1.63988Z" fill="white"/>
<path id="Vector_6" d="M10.0365 17.1322C10.646 17.1847 10.9287 17.02 10.8651 16.9319C10.7857 16.8221 10.8035 16.7408 10.8025 16.6739C10.789 15.4986 11.0293 13.7894 11.0293 13.7894C11.0293 13.6218 11.0279 13.3979 10.8791 13.0373C10.5045 12.1307 8.97678 9.33477 8.97678 9.33477C8.91403 9.22497 8.83027 9.12861 8.73028 9.05118C8.63028 8.97375 8.51602 8.91678 8.39401 8.88352C8.27199 8.85025 8.14462 8.84135 8.01917 8.85731C7.89372 8.87328 7.77263 8.9138 7.66284 8.97656C7.20111 9.2404 7.12263 9.65303 7.30463 10.2905C7.64888 11.498 8.73219 12.9877 9.18381 13.8905C9.07596 14.9117 9.26759 15.7456 9.16696 16.7104C9.15252 16.8491 9.42696 17.0797 10.0365 17.1322Z" fill="white"/>
<path id="Vector_7" d="M4.86791 16.0378C5.04317 16.304 5.33494 16.4913 5.6373 16.4412C6.24829 15.5149 8.023 13.8793 8.023 13.8793C8.13904 13.759 8.29359 13.5967 8.43707 13.2337C8.79721 12.3213 9.63978 9.24852 9.63978 9.24852C9.67092 9.12599 9.67762 8.99852 9.65948 8.87339C9.64134 8.74827 9.59873 8.62795 9.53407 8.5193C9.46942 8.41065 9.38399 8.3158 9.28267 8.24017C9.18135 8.16455 9.06613 8.10963 8.94357 8.07855C8.4284 7.94759 8.08511 8.19025 7.7736 8.77476C7.18283 9.88262 6.92765 11.7069 6.62577 12.6699C5.72541 13.4248 5.47842 14.4046 4.56747 15.1499C4.59877 15.5626 4.69266 15.7715 4.86791 16.0378Z" fill="white"/>
<path id="Vector_8" d="M6.69604 10.2934C6.69604 10.2934 6.69604 10.7749 7.65899 10.7749H10.0172C10.2171 9.81194 10.0302 8.3656 10.0144 7.03625C9.99365 5.29188 8.90793 4.33567 8.22809 4.55426C7.33929 4.84025 6.93148 5.82583 6.81641 7.37473C6.70134 8.92362 6.69604 10.2934 6.69604 10.2934Z" fill="white"/>
<path id="Vector_9" d="M9.22371 6.3418C9.30412 7.01538 9.37874 8.47616 9.45434 8.56861C9.8554 9.06019 10.2834 9.64711 10.6479 9.88255C10.9122 10.053 11.0384 10.4478 11.0942 10.6081C11.1636 10.8075 11.1968 11.2042 11.0668 11.3337C10.9854 11.4146 10.7153 11.4189 10.6932 11.2807C10.6498 11.0116 10.3918 10.8392 10.2468 10.5744C9.95603 10.0429 9.0032 9.53107 8.66183 8.84882C8.52028 8.56572 8.23043 8.01636 8.1404 6.57194C8.48706 6.51898 9.22371 6.3418 9.22371 6.3418Z" fill="white"/>
</g>
<defs>
<clipPath id="clip0_490_1472">
<rect width="17.333" height="17.333" fill="white" transform="matrix(-1 0 0 1 17.77 0.664062)"/>
</clipPath>
</defs>
</svg>
